<mxfile host="app.diagrams.net" modified="2023-10-20T03:42:57.435Z" agent="Mozilla/5.0 (Windows NT 10.0; Win64; x64) AppleWebKit/537.36 (KHTML, like Gecko) Chrome/118.0.0.0 Safari/537.36" version="22.0.5" etag="Nu6P5qPATv0f6aOCafwb" type="github">
  <diagram name="第 1 页" id="IMNYfNmCHNMH4jGxgqbb">
    <mxGraphModel>
      <root>
        <mxCell id="0" />
        <mxCell id="1" parent="0" />
      </root>
    </mxGraphModel>
  </diagram>
</mxfile>
